<svg width="141" height="30" viewBox="0 0 141 30" fill="none" xmlns="http://www.w3.org/2000/svg">
<path d="M9.96959 16.5331C9.78465 16.5331 9.60032 16.3527 9.60032 16.1723C9.60032 15.992 9.78465 15.8116 9.96959 15.8116C13.4159 15.8116 16.1851 13.1062 16.1851 9.7996C16.1851 6.49299 13.4159 3.78757 9.96959 3.78757H5.78477C5.59983 3.78757 5.4155 3.60721 5.4155 3.42685C5.4155 3.24649 5.59983 3.06613 5.78477 3.06613H9.96959C13.7851 3.06613 16.9236 6.07215 16.9236 9.85972C16.9236 13.6473 13.7851 16.5331 9.96959 16.5331ZM7.26123 7.87575C7.26123 7.69539 7.44616 7.51503 7.63109 7.51503H9.96959C11.2617 7.51503 12.3081 8.53708 12.3081 9.7996C12.3081 11.0621 11.2617 12.0842 9.96959 12.0842C9.78465 12.0842 9.60032 11.9038 9.60032 11.7234C9.60032 11.5431 9.78465 11.3627 9.96959 11.3627C10.831 11.3627 11.5695 10.7014 11.5695 9.85972C11.5695 9.01804 10.831 8.35671 9.96959 8.35671H7.63109C7.44616 8.23647 7.26123 8.05611 7.26123 7.87575ZM5.4155 5.6513C5.4155 5.47094 5.59983 5.29058 5.78477 5.29058H9.96959C12.5538 5.29058 14.6466 7.33467 14.6466 9.7996C14.6466 12.2645 12.5538 14.3086 9.96959 14.3086C9.78465 14.3086 9.60032 14.1283 9.60032 13.9479C9.60032 13.7675 9.78465 13.5872 9.96959 13.5872C12.1231 13.5872 13.8466 11.9038 13.8466 9.7996C13.8466 7.69539 12.1231 6.01202 9.96959 6.01202H5.78477C5.59983 6.01202 5.4155 5.83166 5.4155 5.6513ZM3.7541 5.89178C3.69205 5.9519 3.56918 6.01202 3.50774 6.01202C3.44629 6.01202 3.3228 5.9519 3.26135 5.89178C3.19991 5.83166 3.13846 5.71142 3.13846 5.6513C3.13846 5.59118 3.19991 5.47094 3.26135 5.41082C3.3228 5.3507 3.44629 5.29058 3.50774 5.29058C3.56918 5.29058 3.69205 5.3507 3.7541 5.41082C3.81555 5.47094 3.87699 5.59118 3.87699 5.6513C3.87699 5.71142 3.81555 5.83166 3.7541 5.89178ZM10.4003 0H9.60032C4.3077 0 0 4.20842 0 9.37876V17.4349L9.84609 24.1082C10.031 24.2285 10.0925 24.4689 9.96959 24.6493C9.90754 24.7695 9.78465 24.8297 9.66176 24.8297C9.60032 24.8297 9.53887 24.8297 9.41538 24.7695L0 18.3367V30H12.2466L2.46137 23.2064C2.27704 23.0862 2.27704 22.8457 2.39992 22.6653C2.52281 22.485 2.7692 22.485 2.95353 22.6052L13.108 29.6994V22.1844C13.108 22.004 13.2924 21.8236 13.4773 21.8236H17.7236V15.3908C17.7236 15.2104 17.9079 15.0301 18.0928 15.0301H20V9.37876C20 4.20842 15.6923 0 10.4003 0Z" fill="#163C3D"/>
<path d="M34.6 14.3C34.36 14.3 34.0933 14.2867 33.8 14.26C33.5067 14.2333 33.1733 14.18 32.8 14.1V18.02C32.8 18.4333 32.8133 18.76 32.84 19C32.8667 19.2267 32.9467 19.4 33.08 19.52C33.2267 19.64 33.4267 19.72 33.68 19.76C33.9467 19.8 34.3667 19.84 34.94 19.88C34.9667 20.0933 34.9667 20.3067 34.94 20.52C34.6467 20.52 34.2933 20.5133 33.88 20.5C33.48 20.5 33.08 20.5 32.68 20.5C32.2933 20.4867 31.9667 20.48 31.7 20.48C31.4467 20.48 31.1267 20.4867 30.74 20.5C30.3667 20.5 29.9867 20.5 29.6 20.5C29.2267 20.5133 28.8933 20.52 28.6 20.52C28.5733 20.32 28.5733 20.1067 28.6 19.88C29.24 19.8133 29.7 19.7533 29.98 19.7C30.26 19.6333 30.4333 19.5 30.5 19.3C30.5667 19.1 30.6 18.76 30.6 18.28V8.98C30.6 8.42 30.5667 8.02 30.5 7.78C30.4333 7.54 30.26 7.38667 29.98 7.32C29.7 7.24 29.24 7.17333 28.6 7.12C28.5733 6.92 28.5733 6.70667 28.6 6.48C28.8667 6.48 29.2 6.48667 29.6 6.5C30.0133 6.5 30.4133 6.50667 30.8 6.52C31.1867 6.52 31.4667 6.52 31.64 6.52C31.8933 6.52 32.2067 6.52 32.58 6.52C32.9667 6.50667 33.3467 6.49333 33.72 6.48C34.0933 6.46667 34.3867 6.46 34.6 6.46C35.44 6.46 36.22 6.58 36.94 6.82C37.66 7.04667 38.24 7.42667 38.68 7.96C39.12 8.49333 39.34 9.22667 39.34 10.16C39.34 11.0533 39.1333 11.8067 38.72 12.42C38.3067 13.0333 37.74 13.5 37.02 13.82C36.3133 14.14 35.5067 14.3 34.6 14.3ZM32.8 13.3C32.9733 13.34 33.1667 13.38 33.38 13.42C33.5933 13.46 33.82 13.48 34.06 13.48C34.94 13.48 35.6333 13.1867 36.14 12.6C36.6467 12 36.9 11.22 36.9 10.26C36.9 9.32667 36.6467 8.59333 36.14 8.06C35.6333 7.52667 34.8733 7.26 33.86 7.26C33.7267 7.26 33.56 7.26667 33.36 7.28C33.1733 7.29333 32.9867 7.31333 32.8 7.34V13.3ZM40.9053 17.34C41.1053 18.22 41.4253 18.8933 41.8653 19.36C42.3053 19.8133 42.872 20.04 43.5653 20.04C44.0853 20.04 44.5253 19.92 44.8853 19.68C45.2453 19.4267 45.4253 19.0333 45.4253 18.5C45.4253 18.1 45.3253 17.78 45.1253 17.54C44.9386 17.3 44.672 17.1 44.3253 16.94C43.992 16.7667 43.612 16.5933 43.1853 16.42C42.692 16.22 42.2253 16.0067 41.7853 15.78C41.3586 15.54 41.0053 15.2467 40.7253 14.9C40.4586 14.54 40.3253 14.08 40.3253 13.52C40.3253 12.88 40.492 12.3533 40.8253 11.94C41.172 11.5133 41.612 11.1933 42.1453 10.98C42.692 10.7667 43.272 10.66 43.8853 10.66C44.192 10.66 44.4986 10.68 44.8053 10.72C45.112 10.76 45.2786 10.78 45.3053 10.78C45.572 10.82 45.8186 10.8467 46.0453 10.86C46.272 10.86 46.392 10.86 46.4053 10.86C46.4186 10.86 46.4453 10.86 46.4853 10.86C46.5386 10.86 46.6053 10.8533 46.6853 10.84C46.6853 11.2667 46.692 11.7 46.7053 12.14C46.7186 12.58 46.7453 13.0467 46.7853 13.54C46.772 13.54 46.7453 13.54 46.7053 13.54C46.5853 13.5533 46.472 13.5667 46.3653 13.58C46.272 13.58 46.1786 13.5733 46.0853 13.56C45.912 12.8133 45.652 12.2733 45.3053 11.94C44.972 11.5933 44.4986 11.42 43.8853 11.42C43.3386 11.42 42.8986 11.54 42.5653 11.78C42.2453 12.02 42.0853 12.3533 42.0853 12.78C42.0853 13.1267 42.192 13.4133 42.4053 13.64C42.6186 13.8533 42.8786 14.0333 43.1853 14.18C43.492 14.3267 43.7853 14.4533 44.0653 14.56C44.5853 14.76 45.0786 14.9867 45.5453 15.24C46.0253 15.48 46.412 15.7933 46.7053 16.18C47.012 16.5667 47.1653 17.0867 47.1653 17.74C47.1653 18.4333 46.9853 19.0067 46.6253 19.46C46.2786 19.9 45.832 20.2267 45.2853 20.44C44.7386 20.64 44.1653 20.74 43.5653 20.74C43.2186 20.74 42.872 20.7133 42.5253 20.66C42.192 20.6067 42.012 20.58 41.9853 20.58C41.9586 20.58 41.8453 20.5667 41.6453 20.54C41.4586 20.5133 41.2453 20.4867 41.0053 20.46C40.7786 20.4333 40.5786 20.42 40.4053 20.42C40.4053 20.0067 40.3853 19.5467 40.3453 19.04C40.3186 18.5333 40.2853 17.9733 40.2453 17.36C40.272 17.36 40.3053 17.36 40.3453 17.36C40.4653 17.3467 40.5653 17.34 40.6453 17.34C40.7386 17.3267 40.8253 17.3267 40.9053 17.34ZM49.8019 25.6C49.4419 25.6 49.1619 25.4933 48.9619 25.28C48.7752 25.08 48.6819 24.84 48.6819 24.56C48.6819 24.1867 48.8819 23.82 49.2819 23.46C49.6819 23.1133 50.3352 22.94 51.2419 22.94C51.4152 22.6333 51.5819 22.3 51.7419 21.94C51.9152 21.5933 52.1152 21.16 52.3419 20.64C52.1952 20.2667 52.0085 19.7867 51.7819 19.2C51.5552 18.6133 51.2952 17.9667 51.0019 17.26C50.7219 16.54 50.4352 15.8 50.1419 15.04C49.8485 14.2667 49.5619 13.52 49.2819 12.8C49.1219 12.3733 48.9419 12.08 48.7419 11.92C48.5552 11.76 48.1885 11.6533 47.6419 11.6C47.6019 11.4133 47.6019 11.2067 47.6419 10.98C48.0285 10.98 48.4219 10.9867 48.8219 11C49.2219 11.0133 49.6352 11.02 50.0619 11.02C50.4485 11.02 50.8685 11.0133 51.3219 11C51.7752 10.9867 52.1619 10.98 52.4819 10.98C52.5085 11.18 52.5085 11.3867 52.4819 11.6C52.0285 11.6267 51.7085 11.6733 51.5219 11.74C51.3485 11.8067 51.2619 11.94 51.2619 12.14C51.2619 12.3267 51.3285 12.6133 51.4619 13C51.8085 13.9467 52.1419 14.82 52.4619 15.62C52.7952 16.42 53.1285 17.24 53.4619 18.08C53.8885 17.1067 54.2619 16.2333 54.5819 15.46C54.9152 14.6867 55.2485 13.88 55.5819 13.04C55.7285 12.6533 55.8019 12.3667 55.8019 12.18C55.8019 11.9933 55.7019 11.86 55.5019 11.78C55.3019 11.7 54.9485 11.64 54.4419 11.6C54.4019 11.3867 54.4019 11.18 54.4419 10.98C54.7752 10.98 55.1152 10.9867 55.4619 11C55.8219 11.0133 56.2019 11.02 56.6019 11.02C56.8685 11.02 57.1552 11.0133 57.4619 11C57.7819 10.9867 58.0685 10.98 58.3219 10.98C58.3619 11.18 58.3619 11.3867 58.3219 11.6C57.7619 11.64 57.3819 11.7667 57.1819 11.98C56.9819 12.18 56.7952 12.4867 56.6219 12.9L53.2019 20.88C53.1352 21.04 53.0152 21.3067 52.8419 21.68C52.6685 22.0667 52.4819 22.46 52.2819 22.86C52.0952 23.2733 51.9352 23.6133 51.8019 23.88C51.4685 24.5333 51.1419 24.98 50.8219 25.22C50.5019 25.4733 50.1619 25.6 49.8019 25.6ZM66.1917 18.56C66.3251 18.72 66.4251 18.8733 66.4917 19.02C65.3851 20.1667 64.1184 20.74 62.6917 20.74C61.7717 20.74 60.9851 20.52 60.3317 20.08C59.6784 19.64 59.1717 19.0533 58.8117 18.32C58.4651 17.5867 58.2917 16.7733 58.2917 15.88C58.2917 14.9067 58.4917 14.0267 58.8917 13.24C59.2917 12.4533 59.8517 11.8267 60.5717 11.36C61.3051 10.8933 62.1451 10.66 63.0917 10.66C63.5851 10.66 64.0851 10.7333 64.5917 10.88C65.0984 11.0133 65.5251 11.2267 65.8717 11.52C66.2184 11.8133 66.3917 12.1867 66.3917 12.64C66.3917 13 66.2851 13.2733 66.0717 13.46C65.8584 13.6467 65.6051 13.74 65.3117 13.74C64.9117 13.74 64.5717 13.56 64.2917 13.2C64.0117 12.8267 63.8717 12.3333 63.8717 11.72C63.6317 11.56 63.3117 11.48 62.9117 11.48C62.4317 11.48 62.0251 11.6 61.6917 11.84C61.3717 12.08 61.1051 12.4 60.8917 12.8C60.6917 13.2 60.5451 13.6333 60.4517 14.1C60.3584 14.5533 60.3117 15 60.3117 15.44C60.3117 16.1867 60.4384 16.8533 60.6917 17.44C60.9451 18.0267 61.3184 18.4933 61.8117 18.84C62.3051 19.1733 62.9184 19.34 63.6517 19.34C64.0784 19.34 64.4917 19.28 64.8917 19.16C65.3051 19.04 65.7384 18.84 66.1917 18.56ZM73.5858 20.52C73.5591 20.3067 73.5591 20.1 73.5858 19.9C73.9991 19.8733 74.3058 19.8333 74.5058 19.78C74.7058 19.7133 74.8391 19.58 74.9058 19.38C74.9724 19.18 75.0058 18.86 75.0058 18.42V14.38C75.0058 13.58 74.8791 12.9867 74.6258 12.6C74.3858 12.2 73.8991 12 73.1658 12C72.7791 12 72.4058 12.0733 72.0458 12.22C71.6858 12.3533 71.2991 12.6067 70.8858 12.98V18.22C70.8858 18.74 70.9124 19.1133 70.9658 19.34C71.0324 19.5667 71.1591 19.7133 71.3458 19.78C71.5458 19.8333 71.8524 19.8733 72.2658 19.9C72.3324 20.1 72.3324 20.3067 72.2658 20.52C71.9324 20.52 71.5658 20.5133 71.1658 20.5C70.7658 20.4867 70.3191 20.48 69.8258 20.48C69.3324 20.48 68.8924 20.4867 68.5058 20.5C68.1191 20.5133 67.7258 20.52 67.3258 20.52C67.2858 20.3067 67.2858 20.1 67.3258 19.9C67.7791 19.8733 68.1124 19.8333 68.3258 19.78C68.5391 19.7133 68.6791 19.58 68.7458 19.38C68.8124 19.18 68.8458 18.86 68.8458 18.42V8.78C68.8458 8.39333 68.8391 8.08667 68.8258 7.86C68.8124 7.62 68.7524 7.43333 68.6458 7.3C68.5391 7.15333 68.3858 7.05333 68.1858 7C67.9858 6.93333 67.6658 6.88 67.2258 6.84C67.1858 6.66667 67.1858 6.48667 67.2258 6.3C67.7591 6.23333 68.2991 6.13333 68.8458 6C69.3924 5.85333 69.9724 5.65333 70.5858 5.4L70.9258 5.52C70.9124 5.81333 70.8991 6.14667 70.8858 6.52C70.8858 6.88 70.8858 7.28 70.8858 7.72V12.16C71.4858 11.6 72.0724 11.2133 72.6458 11C73.2324 10.7733 73.7924 10.66 74.3258 10.66C75.2058 10.66 75.8791 10.92 76.3458 11.44C76.8124 11.96 77.0458 12.7067 77.0458 13.68V18.22C77.0458 18.74 77.0724 19.1133 77.1258 19.34C77.1924 19.5667 77.3258 19.7133 77.5258 19.78C77.7258 19.8333 78.0458 19.8733 78.4858 19.9C78.5124 20.1 78.5124 20.3067 78.4858 20.52C78.0858 20.52 77.6924 20.5133 77.3058 20.5C76.9324 20.4867 76.4924 20.48 75.9858 20.48C75.4924 20.48 75.0591 20.4867 74.6858 20.5C74.3258 20.5133 73.9591 20.52 73.5858 20.52ZM84.4598 20.74C83.4865 20.74 82.6332 20.5333 81.8998 20.12C81.1798 19.6933 80.6198 19.1133 80.2198 18.38C79.8198 17.6333 79.6198 16.78 79.6198 15.82C79.6198 14.78 79.8265 13.8733 80.2398 13.1C80.6665 12.3267 81.2598 11.7267 82.0198 11.3C82.7798 10.8733 83.6532 10.66 84.6398 10.66C85.6132 10.66 86.4598 10.8733 87.1798 11.3C87.8998 11.7267 88.4598 12.3133 88.8598 13.06C89.2598 13.8067 89.4598 14.6533 89.4598 15.6C89.4598 16.5733 89.2465 17.4533 88.8198 18.24C88.4065 19.0133 87.8265 19.6267 87.0798 20.08C86.3332 20.52 85.4598 20.74 84.4598 20.74ZM81.8798 15.58C81.8798 16.94 82.0998 18.02 82.5398 18.82C82.9932 19.6067 83.6665 20 84.5598 20C85.4132 20 86.0665 19.6267 86.5198 18.88C86.9732 18.12 87.1998 17.1067 87.1998 15.84C87.1998 14.4933 86.9732 13.42 86.5198 12.62C86.0665 11.82 85.4065 11.42 84.5398 11.42C83.6865 11.42 83.0265 11.7867 82.5598 12.52C82.1065 13.2533 81.8798 14.2733 81.8798 15.58ZM95.6856 20.52C95.299 20.52 94.9056 20.5133 94.5056 20.5C94.1056 20.4867 93.659 20.48 93.1656 20.48C92.6723 20.48 92.2323 20.4867 91.8456 20.5C91.459 20.5133 91.0656 20.52 90.6656 20.52C90.6256 20.3067 90.6256 20.1 90.6656 19.9C91.119 19.8733 91.4523 19.8333 91.6656 19.78C91.879 19.7133 92.019 19.58 92.0856 19.38C92.1523 19.18 92.1856 18.86 92.1856 18.42V8.4C92.1856 7.98667 92.1456 7.68 92.0656 7.48C91.999 7.26667 91.8456 7.12 91.6056 7.04C91.379 6.94667 91.0323 6.88 90.5656 6.84C90.5256 6.66667 90.5256 6.48667 90.5656 6.3C91.099 6.23333 91.6456 6.13333 92.2056 6C92.7656 5.85333 93.339 5.65333 93.9256 5.4L94.2656 5.52C94.2523 5.81333 94.239 6.14667 94.2256 6.52C94.2256 6.89333 94.2256 7.3 94.2256 7.74V18.22C94.2256 18.74 94.2523 19.1133 94.3056 19.34C94.3723 19.5667 94.5056 19.7133 94.7056 19.78C94.919 19.8333 95.2456 19.8733 95.6856 19.9C95.7123 20.1 95.7123 20.3067 95.6856 20.52ZM101.725 20.74C100.752 20.74 99.8988 20.5333 99.1655 20.12C98.4455 19.6933 97.8855 19.1133 97.4855 18.38C97.0855 17.6333 96.8855 16.78 96.8855 15.82C96.8855 14.78 97.0921 13.8733 97.5055 13.1C97.9321 12.3267 98.5255 11.7267 99.2855 11.3C100.045 10.8733 100.919 10.66 101.905 10.66C102.879 10.66 103.725 10.8733 104.445 11.3C105.165 11.7267 105.725 12.3133 106.125 13.06C106.525 13.8067 106.725 14.6533 106.725 15.6C106.725 16.5733 106.512 17.4533 106.085 18.24C105.672 19.0133 105.092 19.6267 104.345 20.08C103.599 20.52 102.725 20.74 101.725 20.74ZM99.1455 15.58C99.1455 16.94 99.3655 18.02 99.8055 18.82C100.259 19.6067 100.932 20 101.825 20C102.679 20 103.332 19.6267 103.785 18.88C104.239 18.12 104.465 17.1067 104.465 15.84C104.465 14.4933 104.239 13.42 103.785 12.62C103.332 11.82 102.672 11.42 101.805 11.42C100.952 11.42 100.292 11.7867 99.8255 12.52C99.3721 13.2533 99.1455 14.2733 99.1455 15.58ZM111.991 25.6C110.818 25.6 109.871 25.3933 109.151 24.98C108.431 24.5667 108.071 23.9933 108.071 23.26C108.071 22.6867 108.271 22.2133 108.671 21.84C109.071 21.4667 109.565 21.0933 110.151 20.72C109.631 20.6 109.238 20.3933 108.971 20.1C108.705 19.7933 108.571 19.4333 108.571 19.02C108.571 18.3 109.098 17.5733 110.151 16.84C109.711 16.56 109.358 16.2 109.091 15.76C108.825 15.3067 108.691 14.7867 108.691 14.2C108.691 13.4667 108.878 12.84 109.251 12.32C109.638 11.7867 110.138 11.38 110.751 11.1C111.378 10.8067 112.045 10.66 112.751 10.66C113.791 10.66 114.658 10.9467 115.351 11.52C116.071 10.9467 116.778 10.66 117.471 10.66C117.818 10.66 118.091 10.74 118.291 10.9C118.491 11.0467 118.591 11.2667 118.591 11.56C118.591 11.8533 118.498 12.0867 118.311 12.26C118.125 12.4333 117.898 12.52 117.631 12.52C117.378 12.52 117.158 12.4467 116.971 12.3C116.798 12.14 116.685 11.92 116.631 11.64C116.445 11.68 116.291 11.7267 116.171 11.78C116.065 11.8333 115.938 11.9067 115.791 12C116.245 12.5733 116.471 13.2533 116.471 14.04C116.471 14.7733 116.291 15.4 115.931 15.92C115.571 16.4267 115.091 16.82 114.491 17.1C113.905 17.3667 113.258 17.5 112.551 17.5C111.885 17.5 111.265 17.38 110.691 17.14C110.358 17.4733 110.191 17.8267 110.191 18.2C110.191 18.5333 110.318 18.7467 110.571 18.84C110.825 18.92 111.291 18.96 111.971 18.96C112.278 18.96 112.645 18.96 113.071 18.96C113.498 18.9467 113.811 18.94 114.011 18.94C115.345 18.94 116.305 19.18 116.891 19.66C117.478 20.1267 117.771 20.7733 117.771 21.6C117.771 22.2533 117.611 22.8267 117.291 23.32C116.971 23.8267 116.538 24.2467 115.991 24.58C115.445 24.9267 114.825 25.18 114.131 25.34C113.451 25.5133 112.738 25.6 111.991 25.6ZM111.011 20.82C110.291 21.42 109.931 22.0533 109.931 22.72C109.931 23.1867 110.071 23.5667 110.351 23.86C110.631 24.1533 110.998 24.3667 111.451 24.5C111.905 24.6333 112.385 24.7 112.891 24.7C113.345 24.7 113.818 24.6333 114.311 24.5C114.805 24.3667 115.225 24.1267 115.571 23.78C115.918 23.4467 116.091 22.9733 116.091 22.36C116.091 21.8 115.891 21.4 115.491 21.16C115.105 20.92 114.378 20.8 113.311 20.8C113.058 20.8 112.745 20.8 112.371 20.8C111.998 20.8133 111.585 20.82 111.131 20.82C111.091 20.82 111.051 20.82 111.011 20.82ZM112.591 16.8C113.178 16.8 113.625 16.5667 113.931 16.1C114.251 15.62 114.411 14.96 114.411 14.12C114.411 13.2667 114.251 12.5933 113.931 12.1C113.611 11.6067 113.145 11.36 112.531 11.36C111.958 11.36 111.511 11.5933 111.191 12.06C110.885 12.5133 110.731 13.16 110.731 14C110.731 14.8533 110.891 15.5333 111.211 16.04C111.545 16.5467 112.005 16.8 112.591 16.8ZM124.028 20.52C123.655 20.52 123.268 20.5133 122.868 20.5C122.468 20.4867 122.035 20.48 121.568 20.48C121.142 20.48 120.708 20.4867 120.268 20.5C119.842 20.5133 119.428 20.52 119.028 20.52C118.988 20.3067 118.988 20.1 119.028 19.9C119.482 19.8733 119.815 19.8333 120.028 19.78C120.242 19.7133 120.382 19.58 120.448 19.38C120.515 19.18 120.548 18.86 120.548 18.42V13.94C120.548 13.42 120.528 13.0333 120.488 12.78C120.448 12.5267 120.322 12.3533 120.108 12.26C119.908 12.1533 119.555 12.0667 119.048 12C119.008 11.8133 119.008 11.64 119.048 11.48C119.635 11.3733 120.195 11.24 120.728 11.08C121.262 10.92 121.775 10.7467 122.268 10.56L122.608 10.68C122.595 11.0933 122.582 11.48 122.568 11.84C122.568 12.2 122.568 12.54 122.568 12.86V18.22C122.568 18.74 122.595 19.1133 122.648 19.34C122.715 19.5667 122.848 19.7133 123.048 19.78C123.262 19.8333 123.588 19.8733 124.028 19.9C124.068 20.1 124.068 20.3067 124.028 20.52ZM120.028 7.16C120.028 6.77333 120.162 6.44667 120.428 6.18C120.708 5.91333 121.042 5.78 121.428 5.78C121.802 5.78 122.122 5.91333 122.388 6.18C122.668 6.44667 122.808 6.76667 122.808 7.14C122.808 7.48667 122.675 7.80667 122.408 8.1C122.142 8.38 121.802 8.52 121.388 8.52C121.015 8.52 120.695 8.38667 120.428 8.12C120.162 7.85333 120.028 7.53333 120.028 7.16ZM125.905 17.34C126.105 18.22 126.425 18.8933 126.865 19.36C127.305 19.8133 127.872 20.04 128.565 20.04C129.085 20.04 129.525 19.92 129.885 19.68C130.245 19.4267 130.425 19.0333 130.425 18.5C130.425 18.1 130.325 17.78 130.125 17.54C129.939 17.3 129.672 17.1 129.325 16.94C128.992 16.7667 128.612 16.5933 128.185 16.42C127.692 16.22 127.225 16.0067 126.785 15.78C126.359 15.54 126.005 15.2467 125.725 14.9C125.459 14.54 125.325 14.08 125.325 13.52C125.325 12.88 125.492 12.3533 125.825 11.94C126.172 11.5133 126.612 11.1933 127.145 10.98C127.692 10.7667 128.272 10.66 128.885 10.66C129.192 10.66 129.499 10.68 129.805 10.72C130.112 10.76 130.279 10.78 130.305 10.78C130.572 10.82 130.819 10.8467 131.045 10.86C131.272 10.86 131.392 10.86 131.405 10.86C131.419 10.86 131.445 10.86 131.485 10.86C131.539 10.86 131.605 10.8533 131.685 10.84C131.685 11.2667 131.692 11.7 131.705 12.14C131.719 12.58 131.745 13.0467 131.785 13.54C131.772 13.54 131.745 13.54 131.705 13.54C131.585 13.5533 131.472 13.5667 131.365 13.58C131.272 13.58 131.179 13.5733 131.085 13.56C130.912 12.8133 130.652 12.2733 130.305 11.94C129.972 11.5933 129.499 11.42 128.885 11.42C128.339 11.42 127.899 11.54 127.565 11.78C127.245 12.02 127.085 12.3533 127.085 12.78C127.085 13.1267 127.192 13.4133 127.405 13.64C127.619 13.8533 127.879 14.0333 128.185 14.18C128.492 14.3267 128.785 14.4533 129.065 14.56C129.585 14.76 130.079 14.9867 130.545 15.24C131.025 15.48 131.412 15.7933 131.705 16.18C132.012 16.5667 132.165 17.0867 132.165 17.74C132.165 18.4333 131.985 19.0067 131.625 19.46C131.279 19.9 130.832 20.2267 130.285 20.44C129.739 20.64 129.165 20.74 128.565 20.74C128.219 20.74 127.872 20.7133 127.525 20.66C127.192 20.6067 127.012 20.58 126.985 20.58C126.959 20.58 126.845 20.5667 126.645 20.54C126.459 20.5133 126.245 20.4867 126.005 20.46C125.779 20.4333 125.579 20.42 125.405 20.42C125.405 20.0067 125.385 19.5467 125.345 19.04C125.319 18.5333 125.285 17.9733 125.245 17.36C125.272 17.36 125.305 17.36 125.345 17.36C125.465 17.3467 125.565 17.34 125.645 17.34C125.739 17.3267 125.825 17.3267 125.905 17.34ZM137.302 20.74C136.502 20.74 135.869 20.5533 135.402 20.18C134.935 19.7933 134.702 19.24 134.702 18.52C134.702 17.3467 134.709 16.2133 134.722 15.12C134.749 14.0267 134.769 12.9733 134.782 11.96H133.262C133.222 11.76 133.222 11.58 133.262 11.42C134.582 10.86 135.575 9.94667 136.242 8.68C136.349 8.68 136.455 8.68667 136.562 8.7C136.669 8.7 136.762 8.70667 136.842 8.72C136.829 9.06667 136.815 9.43333 136.802 9.82C136.802 10.2067 136.795 10.6133 136.782 11.04H139.822C139.862 11.3333 139.862 11.64 139.822 11.96H136.782C136.755 12.8933 136.735 13.88 136.722 14.92C136.722 15.9467 136.722 16.98 136.722 18.02C136.722 19.1 137.282 19.64 138.402 19.64C138.882 19.64 139.329 19.5133 139.742 19.26C139.862 19.42 139.935 19.62 139.962 19.86C139.175 20.4467 138.289 20.74 137.302 20.74Z" fill="#163C3D"/>
</svg>
